<svg version="1.1" id="Layer_1" xmlns="http://www.w3.org/2000/svg" xmlns:xlink="http://www.w3.org/1999/xlink" x="0px" y="0px"
	 width="100%" viewBox="0 0 1500 645" enable-background="new 0 0 1500 645" xml:space="preserve">
<path fill="#FFFFFF" opacity="1.000000" stroke="none" 
	d="
M1048.000000,646.000000 
	C698.707275,646.000000 349.914520,646.000000 1.060879,646.000000 
	C1.060879,431.065613 1.060879,216.131210 1.060879,1.098402 
	C500.876190,1.098402 1000.752441,1.098402 1500.814331,1.098402 
	C1500.814331,215.999863 1500.814331,430.999908 1500.814331,646.000000 
	C1350.130981,646.000000 1199.315430,646.000000 1048.000000,646.000000 
M1007.732300,353.500153 
	C1007.731934,295.023071 1007.728943,236.546005 1007.741272,178.068939 
	C1007.741760,175.738892 1007.780579,173.399277 1007.985779,171.080414 
	C1009.268616,156.584488 1022.993042,145.601654 1037.366943,147.519623 
	C1050.924805,149.328735 1059.312988,158.733109 1060.773804,173.761719 
	C1061.386353,180.062515 1065.734985,184.258423 1071.396729,184.011353 
	C1076.832764,183.774124 1081.128906,179.152054 1081.265259,173.394180 
	C1081.911865,146.119171 1056.381348,123.098068 1029.293579,126.530632 
	C1003.607178,129.785614 986.700378,149.404510 986.699829,175.981628 
	C986.698242,257.616272 986.703125,339.250916 986.705566,420.885559 
	C986.705627,422.974823 986.705566,425.064087 986.705566,427.598663 
	C984.014221,427.598663 982.049133,427.598206 980.084106,427.598724 
	C938.267273,427.609680 896.450317,427.592041 854.633606,427.653656 
	C845.166138,427.667603 841.558044,431.479004 841.821594,440.715332 
	C843.113037,485.978088 880.796265,521.364136 927.131897,520.825256 
	C970.888977,520.316345 1007.677307,482.742340 1007.726685,438.467255 
	C1007.757874,410.478271 1007.732361,382.489197 1007.732300,353.500153 
M143.344254,341.499786 
	C143.344269,352.331818 143.319046,363.163940 143.352325,373.995850 
	C143.378647,382.563202 148.045029,387.291687 156.631287,387.313263 
	C174.628799,387.358551 192.640900,387.725311 210.616974,387.098694 
	C217.605225,386.855103 224.942490,385.307220 231.380295,382.595520 
	C256.076782,372.192810 261.551514,338.605865 241.329620,322.082062 
	C236.627167,318.239563 230.542496,316.088623 225.078018,313.150848 
	C226.279816,312.574524 227.755585,311.862335 229.235031,311.157928 
	C247.682785,302.374817 254.094925,280.457275 242.871170,263.410431 
	C234.960983,251.396301 222.799805,246.692154 209.054260,246.302795 
	C192.068985,245.821671 175.061569,246.099762 158.063705,246.093170 
	C147.557556,246.089081 143.350220,250.377457 143.346954,261.009338 
	C143.338837,287.506134 143.344269,314.002960 143.344254,341.499786 
M1365.261353,357.850098 
	C1369.465942,343.497986 1368.941406,329.251953 1364.139038,315.154755 
	C1352.187622,280.071533 1313.354370,281.505737 1297.271240,300.588379 
	C1296.338257,301.695343 1295.831055,303.161133 1295.125732,304.459961 
	C1294.639404,304.058167 1294.152954,303.656342 1293.666626,303.254547 
	C1293.589722,302.470734 1293.488525,301.688446 1293.439453,300.902893 
	C1292.956055,293.184631 1288.396240,288.564697 1281.289062,288.603485 
	C1274.031616,288.643066 1269.767090,293.015808 1269.747559,301.228241 
	C1269.659424,338.362122 1269.667114,375.496552 1269.781250,412.630310 
	C1269.807007,421.026611 1274.082642,424.935913 1282.152832,424.718414 
	C1289.561157,424.518707 1293.415649,420.171509 1293.425171,411.921692 
	C1293.438843,400.098785 1293.403442,388.275818 1293.424683,376.452942 
	C1293.426758,375.281097 1293.675171,374.109680 1293.924927,371.928925 
	C1295.864624,374.064941 1297.006104,375.462830 1298.290649,376.714020 
	C1309.479370,387.613037 1322.728760,391.170197 1337.778687,387.198669 
	C1352.608398,383.285248 1360.593872,372.559357 1365.261353,357.850098 
M1039.822021,306.329437 
	C1023.849792,329.443878 1026.941284,361.340515 1047.716309,377.722382 
	C1065.120850,391.446533 1085.003052,391.998596 1104.939575,384.093719 
	C1131.339478,373.626068 1141.412354,337.009979 1126.352539,310.786377 
	C1109.205200,280.927917 1059.511475,279.970123 1039.822021,306.329437 
M354.904938,381.401703 
	C357.950470,378.864899 361.379303,376.658417 363.931610,373.696594 
	C366.385193,370.849243 366.469391,367.161774 363.893219,364.030518 
	C361.429535,361.036041 358.337128,361.585602 355.249298,362.986511 
	C353.886597,363.604767 352.574554,364.338409 351.198273,364.922516 
	C340.832153,369.321930 330.404327,372.590912 318.794586,370.143616 
	C305.399170,367.319885 296.325684,352.154541 298.571777,341.809448 
	C300.442352,341.809448 302.412415,341.809143 304.382507,341.809479 
	C323.879486,341.813080 343.376434,341.826935 362.873413,341.814545 
	C368.964294,341.810669 370.971436,339.842377 370.905762,333.743408 
	C370.801270,324.034546 368.303070,314.923553 363.028809,306.780640 
	C350.266357,287.076630 318.560608,280.926605 297.882141,294.340698 
	C280.679565,305.500061 272.586243,321.511475 273.917480,342.139160 
	C274.804962,355.891174 279.850311,367.721039 290.356720,376.786133 
	C306.578827,390.782898 333.070740,392.732788 354.904938,381.401703 
M447.853027,313.107666 
	C448.600159,317.535156 449.347321,321.962616 450.169647,326.835724 
	C442.934509,326.835724 437.096222,326.560455 431.293091,326.895233 
	C420.472626,327.519409 409.711731,328.749176 399.945190,334.029694 
	C390.224121,339.285614 385.010681,347.296051 384.802704,358.576904 
	C384.592987,369.952667 389.078857,378.534271 398.999023,384.151184 
	C413.986603,392.637238 435.190430,389.272217 446.699463,376.536377 
	C447.620026,375.517700 447.898346,373.918610 448.475128,372.589233 
	C449.046356,373.107178 449.617584,373.625092 450.188812,374.143036 
	C450.276581,375.124634 450.383484,376.104919 450.449036,377.088013 
	C450.934265,384.364349 454.095062,387.395050 461.116425,387.304199 
	C467.936951,387.215942 471.883209,383.320038 471.892639,376.363831 
	C471.918640,357.213867 472.058533,338.060394 471.751038,318.914795 
	C471.529846,305.142365 462.506531,293.533264 449.779816,289.935760 
	C435.070251,285.777802 420.301361,286.406403 406.090546,291.534546 
	C401.118896,293.328583 396.861420,297.727448 393.016571,301.659241 
	C391.770050,302.933929 392.055481,306.980347 393.152496,308.890320 
	C394.116760,310.569244 397.130890,311.616943 399.357971,311.860107 
	C401.311340,312.073425 403.510529,310.970673 405.459839,310.123962 
	C413.979492,306.423218 422.833954,304.314362 432.133240,304.776337 
	C438.248047,305.080078 444.096008,306.370544 447.853027,313.107666 
M497.971985,315.500336 
	C498.003632,329.318939 497.724274,343.147705 498.175659,356.952606 
	C498.479340,366.240051 502.037781,374.567535 509.349579,380.630402 
	C524.575195,393.255402 548.396301,390.941681 561.546509,375.811707 
	C562.442078,374.781311 563.394104,373.799988 564.644836,372.443329 
	C564.872559,373.581879 565.029419,374.033173 565.044250,374.489044 
	C565.337524,383.506989 569.034302,387.455963 577.131287,387.378052 
	C584.835449,387.303894 588.654114,383.011444 588.657654,374.353333 
	C588.667542,349.877502 588.680969,325.401642 588.648315,300.925873 
	C588.637817,293.093903 584.127502,288.476074 576.770325,288.577026 
	C569.334106,288.679047 565.060486,293.224304 565.056458,301.073029 
	C565.048523,316.557739 565.018433,332.042542 565.074341,347.527069 
	C565.096191,353.575012 563.416260,359.010315 559.741455,363.802643 
	C554.124390,371.127808 543.316040,374.552856 534.623169,371.807739 
	C526.754944,369.323029 522.242493,362.616058 521.763367,352.470276 
	C521.575073,348.482727 521.585327,344.483856 521.579041,340.490051 
	C521.557983,327.169922 521.635925,313.849274 521.543579,300.529755 
	C521.493408,293.293030 516.688110,288.604004 509.644043,288.590271 
	C502.464417,288.576294 498.001007,293.123108 497.970673,300.514526 
	C497.951538,305.176483 497.970245,309.838623 497.971985,315.500336 
M1241.119019,384.647308 
	C1242.275391,381.649292 1244.402222,378.661774 1244.434937,375.651581 
	C1244.706055,350.670959 1244.610474,325.686066 1244.579102,300.702576 
	C1244.569702,293.234589 1240.104736,288.655670 1232.965454,288.595734 
	C1225.522217,288.533264 1221.021729,293.096222 1221.011597,300.826233 
	C1220.991333,316.316010 1220.968506,331.806061 1221.045288,347.295502 
	C1221.078979,354.091278 1219.054688,360.078705 1214.547241,365.152405 
	C1208.673950,371.763489 1197.988159,374.622040 1189.847168,371.522552 
	C1181.298340,368.267792 1177.957520,361.399750 1177.707642,352.695801 
	C1177.559692,347.538849 1177.472168,342.378784 1177.456177,337.219788 
	C1177.417236,324.728119 1177.528564,312.235291 1177.394165,299.744934 
	C1177.323486,293.170776 1172.492188,288.714508 1165.781006,288.588257 
	C1159.352905,288.467346 1154.057373,292.583099 1154.026978,298.343903 
	C1153.922363,318.162140 1153.752441,337.988983 1154.234253,357.797333 
	C1154.450684,366.696777 1158.144409,374.715607 1165.165649,380.547211 
	C1180.412598,393.210846 1204.284790,390.977600 1217.407471,375.892883 
	C1218.317627,374.846710 1219.273438,373.840210 1220.389526,372.616211 
	C1221.032104,375.994659 1221.020874,379.106445 1222.225586,381.640045 
	C1225.151855,387.794312 1232.956909,389.083282 1241.119019,384.647308 
M899.135132,341.500031 
	C899.132202,327.846130 899.159607,314.192169 899.114014,300.538391 
	C899.089233,293.122375 894.547302,288.549866 887.403015,288.588531 
	C880.232239,288.627350 875.687439,293.200653 875.672668,300.505585 
	C875.641663,315.824554 875.759094,331.144867 875.577881,346.461792 
	C875.535156,350.068420 875.050598,353.832947 873.903564,357.232758 
	C870.521362,367.257721 860.706421,373.293030 849.622559,372.662140 
	C841.191467,372.182312 834.774597,366.589172 832.794800,357.490662 
	C832.096863,354.283112 832.115662,350.882874 832.102112,347.569397 
	C832.037231,331.751099 832.136353,315.932007 832.044983,300.113983 
	C832.005493,293.287079 827.038208,288.585083 820.262329,288.594757 
	C813.183716,288.604858 808.580750,292.993469 808.558411,299.986908 
	C808.500977,317.969940 808.444580,335.953796 808.554077,353.936310 
	C808.618591,364.535767 811.836670,374.072632 820.260498,380.931519 
	C835.522583,393.358002 859.630859,390.666840 872.427551,375.443573 
	C873.211121,374.511444 874.043396,373.620209 875.304382,372.202454 
	C875.510681,373.589325 875.663757,374.195526 875.682068,374.805817 
	C875.944458,383.544891 879.559570,387.373199 887.515625,387.311554 
	C895.426819,387.250244 899.120789,383.180725 899.131348,374.470245 
	C899.144287,363.813507 899.134827,353.156799 899.135132,341.500031 
M728.394287,292.068634 
	C725.451111,299.106720 728.464172,303.902283 736.035156,304.189178 
	C737.697693,304.252197 739.393250,304.397614 741.023865,304.161743 
	C744.837708,303.610046 745.735352,305.167664 745.705933,308.865540 
	C745.532959,330.674683 745.600098,352.485962 745.640869,374.296417 
	C745.657166,382.994843 749.807373,387.353790 757.823486,387.303772 
	C765.555969,387.255524 769.360535,383.036774 769.371216,374.368103 
	C769.394836,355.221466 769.355591,336.074738 769.397156,316.928162 
	C769.405762,312.963928 768.141113,307.361420 770.191040,305.469177 
	C772.523804,303.315948 777.910950,304.366699 781.977478,304.221039 
	C788.247070,303.996399 791.337891,301.492401 791.359558,296.372528 
	C791.380737,291.373138 788.086243,288.641876 781.935303,288.603455 
	C777.858643,288.578003 773.781799,288.598602 768.977112,288.598602 
	C769.584412,281.634857 769.906982,275.521912 770.711121,269.473053 
	C771.364014,264.562866 774.689392,261.827942 779.512817,261.399017 
	C782.110413,261.168091 784.788208,261.689911 787.416626,261.988556 
	C792.794861,262.599701 796.233032,260.381073 797.058044,255.670288 
	C797.887207,250.934998 795.534607,247.261673 790.688171,246.036209 
	C787.792603,245.304047 784.853027,244.591827 781.890991,244.301849 
	C762.510193,242.404541 749.299133,247.638580 746.506348,269.529266 
	C745.716797,275.717346 745.632385,281.995361 745.295349,287.150238 
	C739.417786,288.696716 734.151123,290.082428 728.394287,292.068634 
M646.149475,333.499969 
	C646.149475,324.240906 646.149475,314.981812 646.149475,305.348572 
	C650.931274,305.348572 655.067566,305.372284 659.203430,305.343170 
	C665.933899,305.295837 669.036438,302.563416 668.944702,296.815521 
	C668.858398,291.409302 665.629517,288.636047 659.328125,288.600220 
	C655.063721,288.575989 650.799133,288.595612 646.146545,288.595612 
	C646.146545,279.849701 646.212341,271.721802 646.126099,263.595520 
	C646.054932,256.893280 643.081360,253.619980 637.145996,253.411758 
	C630.632568,253.183258 625.825989,256.946228 625.224670,262.930176 
	C624.726440,267.887695 624.358093,272.861176 624.059204,277.835236 
	C623.447266,288.020630 623.482361,288.022736 613.098450,288.589417 
	C608.171387,288.858276 604.761108,292.089081 604.586792,296.653107 
	C604.399658,301.553772 607.678467,305.058105 612.908813,305.330078 
	C615.846802,305.482849 618.799255,305.357574 622.126892,305.357574 
	C622.220764,307.491241 622.343079,309.113037 622.355652,310.735657 
	C622.488647,327.871704 622.294739,345.017273 622.816772,362.141174 
	C623.282959,377.436249 630.854736,386.117035 645.171326,388.281464 
	C653.307251,389.511505 661.491211,389.165955 668.981934,385.051880 
	C672.668152,383.027283 673.906067,379.612213 672.807556,375.682648 
	C671.714722,371.773285 669.061584,369.507965 664.709167,369.811035 
	C662.883301,369.938202 661.052063,369.999115 659.222229,370.056610 
	C649.745422,370.354340 646.912048,368.047638 646.387634,358.461761 
	C645.951843,350.493988 646.202759,342.488647 646.149475,333.499969 
M931.673584,386.345245 
	C942.442139,389.538452 949.229431,384.704315 949.251526,373.739349 
	C949.287476,355.919800 949.261963,338.100128 949.261108,320.280487 
	C949.260071,299.463165 949.349670,278.645203 949.206665,257.828857 
	C949.155579,250.391220 944.479553,246.138062 937.163818,246.184113 
	C929.840332,246.230209 925.556824,250.521530 925.549988,258.109406 
	C925.514832,297.079407 925.558838,336.049530 925.503113,375.019501 
	C925.496399,379.689209 926.747314,383.529114 931.673584,386.345245 
M711.482239,317.501343 
	C711.406250,311.178802 711.690918,304.825317 711.152588,298.542389 
	C710.617615,292.298645 705.184692,288.282715 698.878052,288.654510 
	C692.357910,289.038910 687.851440,293.083099 687.826782,299.206360 
	C687.722229,325.179108 687.720398,351.152740 687.827209,377.125488 
	C687.850586,382.810333 691.938049,386.780182 697.522522,387.276520 
	C706.239319,388.051270 711.423279,383.386475 711.459351,374.443207 
	C711.534546,355.796051 711.482178,337.148407 711.482239,317.501343 
M686.692322,261.663025 
	C691.926819,268.741608 703.656250,270.243286 709.964478,264.361816 
	C711.513672,262.917511 712.628174,260.533569 713.015442,258.412323 
	C713.896912,253.584320 712.288696,249.511734 707.678467,247.183426 
	C701.561035,244.093872 695.429077,244.280167 689.783447,248.179581 
	C685.204346,251.342316 684.569824,255.949509 686.692322,261.663025 
z"/>
<path fill="#040404" opacity="1.000000" stroke="none" 
	d="
M1007.732300,354.000183 
	C1007.732361,382.489197 1007.757874,410.478271 1007.726685,438.467255 
	C1007.677307,482.742340 970.888977,520.316345 927.131897,520.825256 
	C880.796265,521.364136 843.113037,485.978088 841.821594,440.715332 
	C841.558044,431.479004 845.166138,427.667603 854.633606,427.653656 
	C896.450317,427.592041 938.267273,427.609680 980.084106,427.598724 
	C982.049133,427.598206 984.014221,427.598663 986.705566,427.598663 
	C986.705566,425.064087 986.705627,422.974823 986.705566,420.885559 
	C986.703125,339.250916 986.698242,257.616272 986.699829,175.981628 
	C986.700378,149.404510 1003.607178,129.785614 1029.293579,126.530632 
	C1056.381348,123.098068 1081.911865,146.119171 1081.265259,173.394180 
	C1081.128906,179.152054 1076.832764,183.774124 1071.396729,184.011353 
	C1065.734985,184.258423 1061.386353,180.062515 1060.773804,173.761719 
	C1059.312988,158.733109 1050.924805,149.328735 1037.366943,147.519623 
	C1022.993042,145.601654 1009.268616,156.584488 1007.985779,171.080414 
	C1007.780579,173.399277 1007.741760,175.738892 1007.741272,178.068939 
	C1007.728943,236.546005 1007.731934,295.023071 1007.732300,354.000183 
M891.500000,448.137573 
	C882.414368,448.137573 873.328735,448.137573 864.199036,448.137573 
	C866.903198,477.416840 897.575684,501.702179 928.484009,499.618042 
	C957.307800,497.674408 986.083252,471.553009 984.888123,448.137573 
	C954.101624,448.137573 923.300842,448.137573 891.500000,448.137573 
z"/>
<path fill="#050505" opacity="1.000000" stroke="none" 
	d="
M143.344269,340.999756 
	C143.344269,314.002960 143.338837,287.506134 143.346954,261.009338 
	C143.350220,250.377457 147.557556,246.089081 158.063705,246.093170 
	C175.061569,246.099762 192.068985,245.821671 209.054260,246.302795 
	C222.799805,246.692154 234.960983,251.396301 242.871170,263.410431 
	C254.094925,280.457275 247.682785,302.374817 229.235031,311.157928 
	C227.755585,311.862335 226.279816,312.574524 225.078018,313.150848 
	C230.542496,316.088623 236.627167,318.239563 241.329620,322.082062 
	C261.551514,338.605865 256.076782,372.192810 231.380295,382.595520 
	C224.942490,385.307220 217.605225,386.855103 210.616974,387.098694 
	C192.640900,387.725311 174.628799,387.358551 156.631287,387.313263 
	C148.045029,387.291687 143.378647,382.563202 143.352325,373.995850 
	C143.319046,363.163940 143.344269,352.331818 143.344269,340.999756 
M207.063583,324.245392 
	C194.673584,323.627228 182.283569,323.009094 169.715576,322.382050 
	C169.715576,338.544830 169.715576,353.710693 169.715576,368.800934 
	C181.389435,368.800934 192.704483,369.221954 203.969223,368.651001 
	C211.319290,368.278473 218.493164,366.216522 222.915634,359.325073 
	C232.042709,345.102448 225.533600,330.001740 207.063583,324.245392 
M174.689713,306.993744 
	C181.341385,306.990021 188.017868,307.335419 194.636368,306.864960 
	C199.376175,306.528015 204.291168,305.743835 208.682953,304.023224 
	C218.092377,300.336761 222.684875,291.893311 221.470367,282.143127 
	C220.367126,273.285980 213.606934,266.177612 203.780197,265.215607 
	C193.391525,264.198608 182.891937,264.246613 172.436829,264.083679 
	C171.423157,264.067902 169.500122,265.830109 169.485886,266.789062 
	C169.289200,280.045502 169.352966,293.305847 169.352966,306.764038 
	C171.146027,306.855499 172.442322,306.921631 174.689713,306.993744 
z"/>
<path fill="#040404" opacity="1.000000" stroke="none" 
	d="
M1365.174805,358.239014 
	C1360.593872,372.559357 1352.608398,383.285248 1337.778687,387.198669 
	C1322.728760,391.170197 1309.479370,387.613037 1298.290649,376.714020 
	C1297.006104,375.462830 1295.864624,374.064941 1293.924927,371.928925 
	C1293.675171,374.109680 1293.426758,375.281097 1293.424683,376.452942 
	C1293.403442,388.275818 1293.438843,400.098785 1293.425171,411.921692 
	C1293.415649,420.171509 1289.561157,424.518707 1282.152832,424.718414 
	C1274.082642,424.935913 1269.807007,421.026611 1269.781250,412.630310 
	C1269.667114,375.496552 1269.659424,338.362122 1269.747559,301.228241 
	C1269.767090,293.015808 1274.031616,288.643066 1281.289062,288.603485 
	C1288.396240,288.564697 1292.956055,293.184631 1293.439453,300.902893 
	C1293.488525,301.688446 1293.589722,302.470734 1293.666626,303.254547 
	C1294.152954,303.656342 1294.639404,304.058167 1295.125732,304.459961 
	C1295.831055,303.161133 1296.338257,301.695343 1297.271240,300.588379 
	C1313.354370,281.505737 1352.187622,280.071533 1364.139038,315.154755 
	C1368.941406,329.251953 1369.465942,343.497986 1365.174805,358.239014 
M1308.412842,305.646362 
	C1302.849243,307.599884 1299.096680,311.675629 1297.111450,316.914459 
	C1291.971191,330.479492 1291.785278,344.246094 1297.362061,357.748016 
	C1301.203979,367.049408 1310.663452,372.785126 1320.304565,372.329071 
	C1330.101196,371.865662 1338.436157,365.966980 1340.669800,355.529449 
	C1342.583374,346.587524 1343.737793,336.985901 1342.631836,327.995453 
	C1340.102173,307.432129 1326.013550,299.240448 1308.412842,305.646362 
z"/>
<path fill="#050505" opacity="1.000000" stroke="none" 
	d="
M1040.019653,306.031860 
	C1059.511475,279.970123 1109.205200,280.927917 1126.352539,310.786377 
	C1141.412354,337.009979 1131.339478,373.626068 1104.939575,384.093719 
	C1085.003052,391.998596 1065.120850,391.446533 1047.716309,377.722382 
	C1026.941284,361.340515 1023.849792,329.443878 1040.019653,306.031860 
M1098.285522,310.198975 
	C1084.507568,298.297180 1065.291138,302.776398 1058.509399,319.582855 
	C1053.420898,332.193329 1053.401123,344.931915 1058.808472,357.420746 
	C1062.653198,366.300598 1069.427124,371.843933 1079.340454,372.641266 
	C1089.833374,373.485229 1097.845947,369.101990 1102.961792,359.998291 
	C1110.987305,345.716736 1109.877563,322.357605 1098.285522,310.198975 
z"/>
<path fill="#070707" opacity="1.000000" stroke="none" 
	d="
M354.594421,381.594971 
	C333.070740,392.732788 306.578827,390.782898 290.356720,376.786133 
	C279.850311,367.721039 274.804962,355.891174 273.917480,342.139160 
	C272.586243,321.511475 280.679565,305.500061 297.882141,294.340698 
	C318.560608,280.926605 350.266357,287.076630 363.028809,306.780640 
	C368.303070,314.923553 370.801270,324.034546 370.905762,333.743408 
	C370.971436,339.842377 368.964294,341.810669 362.873413,341.814545 
	C343.376434,341.826935 323.879486,341.813080 304.382507,341.809479 
	C302.412415,341.809143 300.442352,341.809448 298.571777,341.809448 
	C296.325684,352.154541 305.399170,367.319885 318.794586,370.143616 
	C330.404327,372.590912 340.832153,369.321930 351.198273,364.922516 
	C352.574554,364.338409 353.886597,363.604767 355.249298,362.986511 
	C358.337128,361.585602 361.429535,361.036041 363.893219,364.030518 
	C366.469391,367.161774 366.385193,370.849243 363.931610,373.696594 
	C361.379303,376.658417 357.950470,378.864899 354.594421,381.594971 
M300.680084,319.371063 
	C299.660461,322.437164 298.640839,325.503296 297.465668,329.037109 
	C315.349640,329.037109 332.377991,329.037109 349.730743,329.037109 
	C348.636169,321.702881 346.706329,315.094269 341.368042,310.091766 
	C330.687347,300.082855 309.068085,300.256317 300.680084,319.371063 
z"/>
<path fill="#060606" opacity="1.000000" stroke="none" 
	d="
M447.650085,312.765045 
	C444.096008,306.370544 438.248047,305.080078 432.133240,304.776337 
	C422.833954,304.314362 413.979492,306.423218 405.459839,310.123962 
	C403.510529,310.970673 401.311340,312.073425 399.357971,311.860107 
	C397.130890,311.616943 394.116760,310.569244 393.152496,308.890320 
	C392.055481,306.980347 391.770050,302.933929 393.016571,301.659241 
	C396.861420,297.727448 401.118896,293.328583 406.090546,291.534546 
	C420.301361,286.406403 435.070251,285.777802 449.779816,289.935760 
	C462.506531,293.533264 471.529846,305.142365 471.751038,318.914795 
	C472.058533,338.060394 471.918640,357.213867 471.892639,376.363831 
	C471.883209,383.320038 467.936951,387.215942 461.116425,387.304199 
	C454.095062,387.395050 450.934265,384.364349 450.449036,377.088013 
	C450.383484,376.104919 450.276581,375.124634 450.188812,374.143036 
	C449.617584,373.625092 449.046356,373.107178 448.475128,372.589233 
	C447.898346,373.918610 447.620026,375.517700 446.699463,376.536377 
	C435.190430,389.272217 413.986603,392.637238 398.999023,384.151184 
	C389.078857,378.534271 384.592987,369.952667 384.802704,358.576904 
	C385.010681,347.296051 390.224121,339.285614 399.945190,334.029694 
	C409.711731,328.749176 420.472626,327.519409 431.293091,326.895233 
	C437.096222,326.560455 442.934509,326.835724 450.169647,326.835724 
	C449.347321,321.962616 448.600159,317.535156 447.650085,312.765045 
M445.778229,362.129822 
	C449.765350,355.392212 450.109131,348.154755 449.237000,340.473297 
	C438.075684,340.401733 427.404266,340.134033 417.282898,344.220978 
	C410.077881,347.130280 406.664825,352.558990 407.115265,359.706818 
	C407.509491,365.963196 411.946777,370.918823 418.920715,372.891388 
	C429.146606,375.783783 438.430023,372.229980 445.778229,362.129822 
z"/>
<path fill="#070707" opacity="1.000000" stroke="none" 
	d="
M497.971985,315.000488 
	C497.970245,309.838623 497.951538,305.176483 497.970673,300.514526 
	C498.001007,293.123108 502.464417,288.576294 509.644043,288.590271 
	C516.688110,288.604004 521.493408,293.293030 521.543579,300.529755 
	C521.635925,313.849274 521.557983,327.169922 521.579041,340.490051 
	C521.585327,344.483856 521.575073,348.482727 521.763367,352.470276 
	C522.242493,362.616058 526.754944,369.323029 534.623169,371.807739 
	C543.316040,374.552856 554.124390,371.127808 559.741455,363.802643 
	C563.416260,359.010315 565.096191,353.575012 565.074341,347.527069 
	C565.018433,332.042542 565.048523,316.557739 565.056458,301.073029 
	C565.060486,293.224304 569.334106,288.679047 576.770325,288.577026 
	C584.127502,288.476074 588.637817,293.093903 588.648315,300.925873 
	C588.680969,325.401642 588.667542,349.877502 588.657654,374.353333 
	C588.654114,383.011444 584.835449,387.303894 577.131287,387.378052 
	C569.034302,387.455963 565.337524,383.506989 565.044250,374.489044 
	C565.029419,374.033173 564.872559,373.581879 564.644836,372.443329 
	C563.394104,373.799988 562.442078,374.781311 561.546509,375.811707 
	C548.396301,390.941681 524.575195,393.255402 509.349579,380.630402 
	C502.037781,374.567535 498.479340,366.240051 498.175659,356.952606 
	C497.724274,343.147705 498.003632,329.318939 497.971985,315.000488 
z"/>
<path fill="#060606" opacity="1.000000" stroke="none" 
	d="
M1240.816895,384.866211 
	C1232.956909,389.083282 1225.151855,387.794312 1222.225586,381.640045 
	C1221.020874,379.106445 1221.032104,375.994659 1220.389526,372.616211 
	C1219.273438,373.840210 1218.317627,374.846710 1217.407471,375.892883 
	C1204.284790,390.977600 1180.412598,393.210846 1165.165649,380.547211 
	C1158.144409,374.715607 1154.450684,366.696777 1154.234253,357.797333 
	C1153.752441,337.988983 1153.922363,318.162140 1154.026978,298.343903 
	C1154.057373,292.583099 1159.352905,288.467346 1165.781006,288.588257 
	C1172.492188,288.714508 1177.323486,293.170776 1177.394165,299.744934 
	C1177.528564,312.235291 1177.417236,324.728119 1177.456177,337.219788 
	C1177.472168,342.378784 1177.559692,347.538849 1177.707642,352.695801 
	C1177.957520,361.399750 1181.298340,368.267792 1189.847168,371.522552 
	C1197.988159,374.622040 1208.673950,371.763489 1214.547241,365.152405 
	C1219.054688,360.078705 1221.078979,354.091278 1221.045288,347.295502 
	C1220.968506,331.806061 1220.991333,316.316010 1221.011597,300.826233 
	C1221.021729,293.096222 1225.522217,288.533264 1232.965454,288.595734 
	C1240.104736,288.655670 1244.569702,293.234589 1244.579102,300.702576 
	C1244.610474,325.686066 1244.706055,350.670959 1244.434937,375.651581 
	C1244.402222,378.661774 1242.275391,381.649292 1240.816895,384.866211 
z"/>
<path fill="#040404" opacity="1.000000" stroke="none" 
	d="
M899.135132,342.000061 
	C899.134827,353.156799 899.144287,363.813507 899.131348,374.470245 
	C899.120789,383.180725 895.426819,387.250244 887.515625,387.311554 
	C879.559570,387.373199 875.944458,383.544891 875.682068,374.805817 
	C875.663757,374.195526 875.510681,373.589325 875.304382,372.202454 
	C874.043396,373.620209 873.211121,374.511444 872.427551,375.443573 
	C859.630859,390.666840 835.522583,393.358002 820.260498,380.931519 
	C811.836670,374.072632 808.618591,364.535767 808.554077,353.936310 
	C808.444580,335.953796 808.500977,317.969940 808.558411,299.986908 
	C808.580750,292.993469 813.183716,288.604858 820.262329,288.594757 
	C827.038208,288.585083 832.005493,293.287079 832.044983,300.113983 
	C832.136353,315.932007 832.037231,331.751099 832.102112,347.569397 
	C832.115662,350.882874 832.096863,354.283112 832.794800,357.490662 
	C834.774597,366.589172 841.191467,372.182312 849.622559,372.662140 
	C860.706421,373.293030 870.521362,367.257721 873.903564,357.232758 
	C875.050598,353.832947 875.535156,350.068420 875.577881,346.461792 
	C875.759094,331.144867 875.641663,315.824554 875.672668,300.505585 
	C875.687439,293.200653 880.232239,288.627350 887.403015,288.588531 
	C894.547302,288.549866 899.089233,293.122375 899.114014,300.538391 
	C899.159607,314.192169 899.132202,327.846130 899.135132,342.000061 
z"/>
<path fill="#030303" opacity="1.000000" stroke="none" 
	d="
M728.639404,291.768402 
	C734.151123,290.082428 739.417786,288.696716 745.295349,287.150238 
	C745.632385,281.995361 745.716797,275.717346 746.506348,269.529266 
	C749.299133,247.638580 762.510193,242.404541 781.890991,244.301849 
	C784.853027,244.591827 787.792603,245.304047 790.688171,246.036209 
	C795.534607,247.261673 797.887207,250.934998 797.058044,255.670288 
	C796.233032,260.381073 792.794861,262.599701 787.416626,261.988556 
	C784.788208,261.689911 782.110413,261.168091 779.512817,261.399017 
	C774.689392,261.827942 771.364014,264.562866 770.711121,269.473053 
	C769.906982,275.521912 769.584412,281.634857 768.977112,288.598602 
	C773.781799,288.598602 777.858643,288.578003 781.935303,288.603455 
	C788.086243,288.641876 791.380737,291.373138 791.359558,296.372528 
	C791.337891,301.492401 788.247070,303.996399 781.977478,304.221039 
	C777.910950,304.366699 772.523804,303.315948 770.191040,305.469177 
	C768.141113,307.361420 769.405762,312.963928 769.397156,316.928162 
	C769.355591,336.074738 769.394836,355.221466 769.371216,374.368103 
	C769.360535,383.036774 765.555969,387.255524 757.823486,387.303772 
	C749.807373,387.353790 745.657166,382.994843 745.640869,374.296417 
	C745.600098,352.485962 745.532959,330.674683 745.705933,308.865540 
	C745.735352,305.167664 744.837708,303.610046 741.023865,304.161743 
	C739.393250,304.397614 737.697693,304.252197 736.035156,304.189178 
	C728.464172,303.902283 725.451111,299.106720 728.639404,291.768402 
z"/>
<path fill="#050505" opacity="1.000000" stroke="none" 
	d="
M646.149475,333.999939 
	C646.202759,342.488647 645.951843,350.493988 646.387634,358.461761 
	C646.912048,368.047638 649.745422,370.354340 659.222229,370.056610 
	C661.052063,369.999115 662.883301,369.938202 664.709167,369.811035 
	C669.061584,369.507965 671.714722,371.773285 672.807556,375.682648 
	C673.906067,379.612213 672.668152,383.027283 668.981934,385.051880 
	C661.491211,389.165955 653.307251,389.511505 645.171326,388.281464 
	C630.854736,386.117035 623.282959,377.436249 622.816772,362.141174 
	C622.294739,345.017273 622.488647,327.871704 622.355652,310.735657 
	C622.343079,309.113037 622.220764,307.491241 622.126892,305.357574 
	C618.799255,305.357574 615.846802,305.482849 612.908813,305.330078 
	C607.678467,305.058105 604.399658,301.553772 604.586792,296.653107 
	C604.761108,292.089081 608.171387,288.858276 613.098450,288.589417 
	C623.482361,288.022736 623.447266,288.020630 624.059204,277.835236 
	C624.358093,272.861176 624.726440,267.887695 625.224670,262.930176 
	C625.825989,256.946228 630.632568,253.183258 637.145996,253.411758 
	C643.081360,253.619980 646.054932,256.893280 646.126099,263.595520 
	C646.212341,271.721802 646.146545,279.849701 646.146545,288.595612 
	C650.799133,288.595612 655.063721,288.575989 659.328125,288.600220 
	C665.629517,288.636047 668.858398,291.409302 668.944702,296.815521 
	C669.036438,302.563416 665.933899,305.295837 659.203430,305.343170 
	C655.067566,305.372284 650.931274,305.348572 646.149475,305.348572 
	C646.149475,314.981812 646.149475,324.240906 646.149475,333.999939 
z"/>
<path fill="#020202" opacity="1.000000" stroke="none" 
	d="
M931.298523,386.191650 
	C926.747314,383.529114 925.496399,379.689209 925.503113,375.019501 
	C925.558838,336.049530 925.514832,297.079407 925.549988,258.109406 
	C925.556824,250.521530 929.840332,246.230209 937.163818,246.184113 
	C944.479553,246.138062 949.155579,250.391220 949.206665,257.828857 
	C949.349670,278.645203 949.260071,299.463165 949.261108,320.280487 
	C949.261963,338.100128 949.287476,355.919800 949.251526,373.739349 
	C949.229431,384.704315 942.442139,389.538452 931.298523,386.191650 
z"/>
<path fill="#020202" opacity="1.000000" stroke="none" 
	d="
M711.482239,318.001160 
	C711.482178,337.148407 711.534546,355.796051 711.459351,374.443207 
	C711.423279,383.386475 706.239319,388.051270 697.522522,387.276520 
	C691.938049,386.780182 687.850586,382.810333 687.827209,377.125488 
	C687.720398,351.152740 687.722229,325.179108 687.826782,299.206360 
	C687.851440,293.083099 692.357910,289.038910 698.878052,288.654510 
	C705.184692,288.282715 710.617615,292.298645 711.152588,298.542389 
	C711.690918,304.825317 711.406250,311.178802 711.482239,318.001160 
z"/>
<path fill="#070707" opacity="1.000000" stroke="none" 
	d="
M686.492065,261.339722 
	C684.569824,255.949509 685.204346,251.342316 689.783447,248.179581 
	C695.429077,244.280167 701.561035,244.093872 707.678467,247.183426 
	C712.288696,249.511734 713.896912,253.584320 713.015442,258.412323 
	C712.628174,260.533569 711.513672,262.917511 709.964478,264.361816 
	C703.656250,270.243286 691.926819,268.741608 686.492065,261.339722 
z"/>
<path fill="#FBFBFB" opacity="1.000000" stroke="none" 
	d="
M892.000000,448.137573 
	C923.300842,448.137573 954.101624,448.137573 984.888123,448.137573 
	C986.083252,471.553009 957.307800,497.674408 928.484009,499.618042 
	C897.575684,501.702179 866.903198,477.416840 864.199036,448.137573 
	C873.328735,448.137573 882.414368,448.137573 892.000000,448.137573 
z"/>
<path fill="#FAFAFA" opacity="1.000000" stroke="none" 
	d="
M207.473114,324.312469 
	C225.533600,330.001740 232.042709,345.102448 222.915634,359.325073 
	C218.493164,366.216522 211.319290,368.278473 203.969223,368.651001 
	C192.704483,369.221954 181.389435,368.800934 169.715576,368.800934 
	C169.715576,353.710693 169.715576,338.544830 169.715576,322.382050 
	C182.283569,323.009094 194.673584,323.627228 207.473114,324.312469 
z"/>
<path fill="#FAFAFA" opacity="1.000000" stroke="none" 
	d="
M174.214172,306.990753 
	C172.442322,306.921631 171.146027,306.855499 169.352966,306.764038 
	C169.352966,293.305847 169.289200,280.045502 169.485886,266.789062 
	C169.500122,265.830109 171.423157,264.067902 172.436829,264.083679 
	C182.891937,264.246613 193.391525,264.198608 203.780197,265.215607 
	C213.606934,266.177612 220.367126,273.285980 221.470367,282.143127 
	C222.684875,291.893311 218.092377,300.336761 208.682953,304.023224 
	C204.291168,305.743835 199.376175,306.528015 194.636368,306.864960 
	C188.017868,307.335419 181.341385,306.990021 174.214172,306.990753 
z"/>
<path fill="#FCFCFC" opacity="1.000000" stroke="none" 
	d="
M1308.766968,305.486267 
	C1326.013550,299.240448 1340.102173,307.432129 1342.631836,327.995453 
	C1343.737793,336.985901 1342.583374,346.587524 1340.669800,355.529449 
	C1338.436157,365.966980 1330.101196,371.865662 1320.304565,372.329071 
	C1310.663452,372.785126 1301.203979,367.049408 1297.362061,357.748016 
	C1291.785278,344.246094 1291.971191,330.479492 1297.111450,316.914459 
	C1299.096680,311.675629 1302.849243,307.599884 1308.766968,305.486267 
z"/>
<path fill="#FBFBFB" opacity="1.000000" stroke="none" 
	d="
M1098.537964,310.456970 
	C1109.877563,322.357605 1110.987305,345.716736 1102.961792,359.998291 
	C1097.845947,369.101990 1089.833374,373.485229 1079.340454,372.641266 
	C1069.427124,371.843933 1062.653198,366.300598 1058.808472,357.420746 
	C1053.401123,344.931915 1053.420898,332.193329 1058.509399,319.582855 
	C1065.291138,302.776398 1084.507568,298.297180 1098.537964,310.456970 
z"/>
<path fill="#FAFAFA" opacity="1.000000" stroke="none" 
	d="
M300.838959,319.024536 
	C309.068085,300.256317 330.687347,300.082855 341.368042,310.091766 
	C346.706329,315.094269 348.636169,321.702881 349.730743,329.037109 
	C332.377991,329.037109 315.349640,329.037109 297.465668,329.037109 
	C298.640839,325.503296 299.660461,322.437164 300.838959,319.024536 
z"/>
<path fill="#F9F9F9" opacity="1.000000" stroke="none" 
	d="
M445.581970,362.445068 
	C438.430023,372.229980 429.146606,375.783783 418.920715,372.891388 
	C411.946777,370.918823 407.509491,365.963196 407.115265,359.706818 
	C406.664825,352.558990 410.077881,347.130280 417.282898,344.220978 
	C427.404266,340.134033 438.075684,340.401733 449.237000,340.473297 
	C450.109131,348.154755 449.765350,355.392212 445.581970,362.445068 
z"/>
</svg>