<?xml version="1.0" encoding="UTF-8"?><svg id="Layer_2" xmlns="http://www.w3.org/2000/svg" viewBox="0 0 339.69 72.83"><defs><style>.cls-1{fill:#fcb51d;}.cls-2{fill:#82b428;}</style></defs><g id="Layer_1-2"><g><path class="cls-1" d="m11.5,22.31C5.42,22.31.45,17.72.45,11.69V1.19h6.06v14.26c0,.66.38,1.02,1.03,1.02h7.92c.66,0,1.03-.38,1.03-1.02V1.19h6.06v10.5c0,6.03-4.97,10.62-11.05,10.62Zm13.07-11.69v10.49h6.06V6.85c0-.65.37-1.02,1.04-1.02h7.92c.66,0,1.03.37,1.03,1.02v14.26h6.06v-10.49c0-6.03-4.97-10.62-11.06-10.62s-11.05,4.6-11.05,10.62Zm56.71,0v10.49h6.06V6.85c0-.65.37-1.02,1.03-1.02h7.92c.66,0,1.03.37,1.03,1.02v14.26h6.06v-10.49c0-6.03-4.97-10.62-11.05-10.62s-11.05,4.6-11.05,10.62Zm-2.02.5c0,6.28-4.89,11.21-11.11,11.21s-10.44-4.93-10.44-11.21S61.94.04,68.16.04s11.11,4.84,11.11,11.09Zm-5.74-4.21c0-.65-.37-1.03-1.04-1.03h-8.55c-.66,0-1.04.37-1.04,1.03v8.46c0,.65.37,1.03,1.04,1.03h8.55c.66,0,1.04-.37,1.04-1.03V6.91ZM55.29,1.19h-6.06v19.93h6.06V1.19Z"/><path class="cls-2" d="m146.12,71.84h-20.5V30.52h20.5c11.39,0,20.66,9.27,20.66,20.66s-9.27,20.66-20.66,20.66Zm-13.05-7.45h13.05c7.28,0,13.21-5.93,13.21-13.21s-5.93-13.21-13.21-13.21h-13.05v26.42Zm-12.51,7.44h-7.26v-21.5c0-7.29-5.75-13.22-12.81-13.22s-12.81,5.93-12.81,13.22v21.5h-7.26v-21.5c0-11.38,9-20.65,20.07-20.65s20.07,9.26,20.07,20.65v21.5Zm-113.11.01H0v-26.78c0-8.02,6.52-14.54,14.54-14.54h8.78c8.03,0,14.57,6.54,14.57,14.57s-6.54,14.57-14.57,14.57H7.45v12.19Zm0-19.64h15.88c3.93,0,7.12-3.19,7.12-7.12s-3.19-7.12-7.12-7.12h-8.78c-3.91,0-7.09,3.18-7.09,7.09v7.15Zm211.67,19.64h-7.45v-20.69c0-11.57,8.74-20.64,19.9-20.64h9.07v7.45h-9.07c-7.1,0-12.45,5.67-12.45,13.19v20.69Zm-14.95,0h-21.22c-6.67,0-12.1-5.43-12.1-12.1v-16.43c0-7.06,5.74-12.8,12.79-12.8h11.49c7.05,0,12.79,5.74,12.79,12.79s-5.74,12.79-12.79,12.79h-16.86v3.64c0,2.57,2.09,4.66,4.67,4.66h21.22v7.43Zm-25.88-23.17h16.86c2.96,0,5.36-2.41,5.36-5.36s-2.41-5.36-5.36-5.36h-11.49c-2.96,0-5.36,2.41-5.36,5.36v5.36Zm-103.06,23.17h-24.29c-7.05,0-12.79-5.74-12.79-12.79s5.74-12.79,12.79-12.79h16.86v-3.64c0-2.57-2.09-4.66-4.67-4.66h-19.25v-7.43h19.25c6.67,0,12.1,5.43,12.1,12.1v29.23Zm-23.7-18.16c-2.96,0-5.36,2.41-5.36,5.36s2.41,5.36,5.36,5.36h16.86v-10.72h-16.86Zm224.56,18.27h-24.29c-7.05,0-12.79-5.74-12.79-12.79s5.74-12.79,12.79-12.79h16.86v-3.64c0-2.57-2.09-4.66-4.67-4.66h-18.07v-7.43h18.07c6.67,0,12.1,5.43,12.1,12.1v29.23Zm-24.29-18.16c-2.96,0-5.36,2.41-5.36,5.36s2.41,5.36,5.36,5.36h16.86v-10.72h-16.86Zm81.5-16.55l-26.87,26.87-19.79-19.79-1.07,1.78c-1.41,2.35-1.42,5.29,0,7.64l9.33,15.53c1.31,2.2,3.67,3.54,6.11,3.54h22.07c2.53.01,4.9-1.32,6.21-3.52l9.35-15.51c1.41-2.35,1.42-5.29,0-7.64l-5.34-8.89Zm-26.87,17.71l23.43-23.43-.55-.92c-1.31-2.19-3.67-3.53-6.2-3.53h-22.07c-2.44-.01-4.81,1.32-6.12,3.51l-4.83,8.02,16.35,16.35Z"/></g></g></svg>